<svg width="12" height="12" viewBox="0 0 12 12" fill="none" xmlns="http://www.w3.org/2000/svg">
<path d="M4.7983 2.44263L4.47016 3.29991H2.10002C1.8515 3.29991 1.65002 3.50138 1.65002 3.74991V9.14991C1.65002 9.39844 1.8515 9.59991 2.10002 9.59991H5.23125C5.07046 9.53768 4.9133 9.46267 4.76127 9.3749C3.71627 8.77157 3.07253 7.65657 3.07253 6.4499C3.07253 5.24324 3.71627 4.12823 4.76127 3.5249C5.80628 2.92157 7.09377 2.92157 8.13877 3.5249C9.18378 4.12823 9.82752 5.24324 9.82752 6.4499C9.82752 7.65657 9.18378 8.77157 8.13877 9.3749C7.98675 9.46267 7.82959 9.53768 7.6688 9.59991H9.60002C9.84855 9.59991 10.05 9.39844 10.05 9.14991V3.74991C10.05 3.50138 9.84855 3.29991 9.60002 3.29991H8.44805L8.11991 2.44263C8.07547 2.32653 7.96404 2.24987 7.83973 2.24987H5.07848C4.95417 2.24987 4.84274 2.32653 4.7983 2.44263Z" fill="#C2CCDE" fill-opacity="0.25"/>
<path d="M3.58729 3.2999H2.41795L2.49759 2.9358C2.52771 2.79807 2.64968 2.6999 2.79066 2.6999H3.21458C3.35556 2.6999 3.47753 2.79807 3.50765 2.9358L3.58729 3.2999Z" fill="#C2CCDE" fill-opacity="0.25"/>
<path d="M7.62456 2.2499H5.28587L5.46971 1.82967C5.51748 1.72047 5.62537 1.6499 5.74456 1.6499H7.16587C7.28506 1.6499 7.39295 1.72046 7.44072 1.82967L7.62456 2.2499Z" fill="#C2CCDE" fill-opacity="0.25"/>
<path d="M4.76127 3.5249C5.80628 2.92157 7.09377 2.92157 8.13877 3.5249C9.18378 4.12823 9.82752 5.24324 9.82752 6.4499C9.82752 7.65657 9.18378 8.77157 8.13877 9.3749C7.09377 9.97823 5.80628 9.97823 4.76127 9.3749C3.71627 8.77157 3.07253 7.65657 3.07253 6.4499C3.07253 5.24324 3.71627 4.12823 4.76127 3.5249Z" fill="#C2CCDE" fill-opacity="0.25"/>
<path d="M5.41079 4.64991C6.05387 4.27863 6.84618 4.27863 7.48925 4.64991C8.13233 5.02119 8.52849 5.70735 8.52849 6.44991C8.52849 7.19247 8.13233 7.87863 7.48925 8.24991C6.84618 8.62119 6.05387 8.62119 5.41079 8.24991C4.76772 7.87863 4.37156 7.19247 4.37156 6.44991C4.37156 5.70735 4.76772 5.02119 5.41079 4.64991Z" fill="#C2CCDE" fill-opacity="0.25"/>
<path d="M4.76127 9.3749C4.9133 9.46267 5.07046 9.53768 5.23125 9.59991H2.10002C1.8515 9.59991 1.65002 9.39844 1.65002 9.14991V3.74991C1.65002 3.50138 1.8515 3.29991 2.10002 3.29991H4.47016L4.7983 2.44263C4.84274 2.32653 4.95417 2.24987 5.07848 2.24987H7.83973C7.96404 2.24987 8.07547 2.32653 8.11991 2.44263L8.44805 3.29991H9.60002C9.84855 3.29991 10.05 3.50138 10.05 3.74991V9.14991C10.05 9.39844 9.84855 9.59991 9.60002 9.59991H7.6688C7.82959 9.53768 7.98675 9.46267 8.13877 9.3749M4.76127 9.3749C3.71627 8.77157 3.07253 7.65657 3.07253 6.4499C3.07253 5.24324 3.71627 4.12823 4.76127 3.5249C5.80628 2.92157 7.09377 2.92157 8.13877 3.5249C9.18378 4.12823 9.82752 5.24324 9.82752 6.4499C9.82752 7.65657 9.18378 8.77157 8.13877 9.3749M4.76127 9.3749C5.80628 9.97823 7.09377 9.97823 8.13877 9.3749M5.4616 6.77072C5.42839 6.66851 5.4108 6.56037 5.4108 6.44972C5.4108 6.07851 5.60884 5.73549 5.93032 5.54988C6.09102 5.4571 6.27036 5.4107 6.44971 5.41068M3.58729 3.2999H2.41795L2.49759 2.9358C2.52771 2.79807 2.64968 2.6999 2.79066 2.6999H3.21458C3.35556 2.6999 3.47753 2.79807 3.50765 2.9358L3.58729 3.2999ZM7.62456 2.2499H5.28587L5.46971 1.82967C5.51748 1.72047 5.62536 1.6499 5.74456 1.6499H7.16587C7.28506 1.6499 7.39295 1.72046 7.44072 1.82967L7.62456 2.2499ZM4.37156 6.44991C4.37156 5.70735 4.76772 5.02119 5.41079 4.64991C6.05387 4.27863 6.84618 4.27863 7.48925 4.64991C8.13233 5.02119 8.52849 5.70735 8.52849 6.44991C8.52849 7.19247 8.13233 7.87863 7.48925 8.24991C6.84618 8.62119 6.05387 8.62119 5.41079 8.24991C4.76772 7.87863 4.37156 7.19247 4.37156 6.44991Z" stroke="#414141" stroke-width="0.5" stroke-linecap="round" stroke-linejoin="round"/>
</svg>
