<svg width="10" height="10" viewBox="0 0 10 10" fill="none" xmlns="http://www.w3.org/2000/svg">
<g clip-path="url(#clip0_1_3344)">
<path d="M4.58325 1.6665H1.66659C1.44557 1.6665 1.23361 1.7543 1.07733 1.91058C0.921049 2.06686 0.833252 2.27882 0.833252 2.49984V8.33317C0.833252 8.55418 0.921049 8.76615 1.07733 8.92243C1.23361 9.07871 1.44557 9.1665 1.66659 9.1665H7.49992C7.72093 9.1665 7.93289 9.07871 8.08917 8.92243C8.24545 8.76615 8.33325 8.55418 8.33325 8.33317V5.4165" stroke="#414141" stroke-linecap="round" stroke-linejoin="round"/>
<path d="M7.70825 1.0416C7.87401 0.875838 8.09883 0.782715 8.33325 0.782715C8.56767 0.782715 8.79249 0.875838 8.95825 1.0416C9.12401 1.20736 9.21713 1.43218 9.21713 1.6666C9.21713 1.90102 9.12401 2.12584 8.95825 2.2916L4.99992 6.24993L3.33325 6.6666L3.74992 4.99993L7.70825 1.0416Z" stroke="#414141" stroke-linecap="round" stroke-linejoin="round"/>
</g>
<defs>
<clipPath id="clip0_1_3344">
<rect width="10" height="10" fill="white"/>
</clipPath>
</defs>
</svg>
