<svg width="16" height="16" viewBox="0 0 16 16" fill="none" xmlns="http://www.w3.org/2000/svg">
<path fill-rule="evenodd" clip-rule="evenodd" d="M8 2.35352C10.2091 2.35352 12 4.14438 12 6.35352V6.59445C12 7.47835 11.7238 8.34017 11.2101 9.05944L8.0079 13.5425C8.00403 13.5479 7.99597 13.5479 7.9921 13.5425L4.78994 9.05943C4.27618 8.34017 4 7.47835 4 6.59445L4 6.35351C4 4.14437 5.79086 2.35352 8 2.35352ZM9.75676 5.97639C9.63473 5.44177 9.2759 4.9918 8.78183 4.75387C8.28776 4.51594 7.71223 4.51594 7.21817 4.75387C6.7241 4.9918 6.36526 5.44177 6.24324 5.97639C6.12121 6.51102 6.24928 7.07211 6.59119 7.50085C6.93309 7.92959 7.45162 8.1793 8 8.1793C8.54837 8.1793 9.0669 7.92959 9.40881 7.50085C9.75072 7.07211 9.87878 6.51102 9.75676 5.97639Z" fill="#414141"/>
<path d="M11.2101 9.05944L11.6169 9.35005L11.2101 9.05944ZM8.0079 13.5425L8.41477 13.8331L8.41477 13.8331L8.0079 13.5425ZM7.9921 13.5425L7.58523 13.8331L7.58524 13.8331L7.9921 13.5425ZM4.78994 9.05943L4.38308 9.35005H4.38308L4.78994 9.05943ZM8.78183 4.75387L8.56489 5.20436L8.78183 4.75387ZM9.75676 5.97639L9.26929 6.08765L9.75676 5.97639ZM7.21817 4.75387L7.43511 5.20436L7.21817 4.75387ZM6.24324 5.97639L6.7307 6.08765L6.24324 5.97639ZM6.59119 7.50085L6.20027 7.81259L6.59119 7.50085ZM9.40881 7.50085L9.79973 7.8126H9.79973L9.40881 7.50085ZM12.5 6.35352C12.5 3.86823 10.4853 1.85352 8 1.85352V2.85352C9.93299 2.85352 11.5 4.42052 11.5 6.35352L12.5 6.35352ZM12.5 6.59445V6.35352L11.5 6.35352V6.59445L12.5 6.59445ZM11.6169 9.35005C12.1913 8.54599 12.5 7.58257 12.5 6.59445L11.5 6.59445C11.5 7.37414 11.2564 8.13435 10.8032 8.76882L11.6169 9.35005ZM8.41477 13.8331L11.6169 9.35005L10.8032 8.76882L7.60103 13.2518L8.41477 13.8331ZM7.58524 13.8331C7.78852 14.1177 8.21148 14.1177 8.41477 13.8331L7.60103 13.2518C7.79658 12.9781 8.20342 12.9781 8.39896 13.2518L7.58524 13.8331ZM4.38308 9.35005L7.58523 13.8331L8.39896 13.2518L5.19681 8.76882L4.38308 9.35005ZM3.5 6.59445C3.5 7.58256 3.80874 8.54599 4.38308 9.35005L5.19681 8.76882C4.74362 8.13435 4.5 7.37414 4.5 6.59445H3.5ZM3.5 6.35351V6.59445H4.5V6.35351H3.5ZM8 1.85352C5.51472 1.85352 3.5 3.86823 3.5 6.35351H4.5C4.5 4.42052 6.067 2.85352 8 2.85352V1.85352ZM8.56489 5.20436C8.92186 5.37627 9.18113 5.70137 9.26929 6.08765L10.2442 5.86513C10.0883 5.18216 9.62993 4.60734 8.99877 4.30339L8.56489 5.20436ZM7.43511 5.20436C7.79208 5.03245 8.20791 5.03245 8.56489 5.20436L8.99877 4.30339C8.36761 3.99944 7.63239 3.99944 7.00122 4.30339L7.43511 5.20436ZM6.7307 6.08765C6.81887 5.70137 7.07813 5.37627 7.43511 5.20436L7.00122 4.30339C6.37006 4.60734 5.91166 5.18216 5.75577 5.86513L6.7307 6.08765ZM6.9821 7.18911C6.73507 6.87933 6.64254 6.47393 6.7307 6.08765L5.75577 5.86513C5.59989 6.5481 5.76349 7.26489 6.20027 7.81259L6.9821 7.18911ZM8 7.6793C7.60379 7.6793 7.22914 7.49888 6.9821 7.18911L6.20027 7.81259C6.63705 8.3603 7.29946 8.6793 8 8.6793V7.6793ZM9.01789 7.18911C8.77086 7.49888 8.39621 7.6793 8 7.6793V8.6793C8.70053 8.6793 9.36295 8.3603 9.79973 7.8126L9.01789 7.18911ZM9.26929 6.08765C9.35746 6.47393 9.26493 6.87933 9.01789 7.18911L9.79973 7.8126C10.2365 7.26489 10.4001 6.5481 10.2442 5.86513L9.26929 6.08765Z" fill="#414141"/>
</svg>
