<svg width="24" height="24" viewBox="0 0 24 24" fill="none" xmlns="http://www.w3.org/2000/svg">
<path d="M8.71631 5.18112C10.7914 4.18181 13.2086 4.18181 15.2837 5.18112C17.3588 6.18043 18.8659 8.07028 19.3784 10.3157C19.8909 12.5611 19.353 14.9177 17.917 16.7184C16.481 18.5191 14.3032 19.5679 12 19.5679C9.69683 19.5679 7.51899 18.5191 6.08299 16.7184C4.64699 14.9177 4.10911 12.5611 4.62161 10.3157C5.13411 8.07028 6.64122 6.18043 8.71631 5.18112Z" fill="#C2CCDE" fill-opacity="0.25"/>
<path d="M9.9 10.1998C9.9 10.5311 9.63137 10.7998 9.3 10.7998C8.96863 10.7998 8.7 10.5311 8.7 10.1998C8.7 9.86841 8.96863 9.59978 9.3 9.59978C9.63137 9.59978 9.9 9.86841 9.9 10.1998Z" fill="#C2CCDE" fill-opacity="0.25"/>
<path d="M15.3 10.1998C15.3 10.5311 15.0314 10.7998 14.7 10.7998C14.3686 10.7998 14.1 10.5311 14.1 10.1998C14.1 9.86841 14.3686 9.59978 14.7 9.59978C15.0314 9.59978 15.3 9.86841 15.3 10.1998Z" fill="#C2CCDE" fill-opacity="0.25"/>
<path d="M15.182 15.1818C14.3381 16.0257 13.1935 16.4998 12 16.4998C10.8065 16.4998 9.66193 16.0257 8.81802 15.1818M4.62161 10.3157C5.13411 8.07028 6.64122 6.18043 8.71631 5.18112C10.7914 4.18181 13.2086 4.18181 15.2837 5.18112C17.3588 6.18043 18.8659 8.07028 19.3784 10.3157C19.8909 12.5611 19.353 14.9177 17.917 16.7184C16.481 18.5191 14.3032 19.5679 12 19.5679C9.69683 19.5679 7.51899 18.5191 6.08299 16.7184C4.64699 14.9177 4.10911 12.5611 4.62161 10.3157ZM9.9 10.1998C9.9 10.5311 9.63137 10.7998 9.3 10.7998C8.96863 10.7998 8.7 10.5311 8.7 10.1998C8.7 9.86841 8.96863 9.59978 9.3 9.59978C9.63137 9.59978 9.9 9.86841 9.9 10.1998ZM15.3 10.1998C15.3 10.5311 15.0314 10.7998 14.7 10.7998C14.3686 10.7998 14.1 10.5311 14.1 10.1998C14.1 9.86841 14.3686 9.59978 14.7 9.59978C15.0314 9.59978 15.3 9.86841 15.3 10.1998Z" stroke="#414141" stroke-linecap="round" stroke-linejoin="round"/>
</svg>
