<svg width="19" height="19" viewBox="0 0 19 19" fill="none" xmlns="http://www.w3.org/2000/svg">
<path d="M6.05585 1.18508C8.2611 0.271639 10.7389 0.271638 12.9442 1.18508C15.1494 2.09853 16.9015 3.8506 17.8149 6.05585C18.7284 8.2611 18.7284 10.7389 17.8149 12.9441C16.9015 15.1494 15.1494 16.9015 12.9442 17.8149C10.7389 18.7284 8.2611 18.7284 6.05585 17.8149C3.8506 16.9015 2.09853 15.1494 1.18508 12.9442C0.271639 10.7389 0.271639 8.2611 1.18508 6.05585C2.09853 3.8506 3.8506 2.09853 6.05585 1.18508Z" fill="#C2CCDE" fill-opacity="0.25"/>
<path d="M13.5914 9.66472H5.4735M9.53247 13.7237V5.60575M1.18508 6.05585C2.09853 3.8506 3.8506 2.09853 6.05585 1.18508C8.2611 0.271639 10.7389 0.271638 12.9442 1.18508C15.1494 2.09853 16.9015 3.8506 17.8149 6.05585C18.7284 8.2611 18.7284 10.7389 17.8149 12.9442C16.9015 15.1494 15.1494 16.9015 12.9442 17.8149C10.7389 18.7284 8.2611 18.7284 6.05585 17.8149C3.8506 16.9015 2.09853 15.1494 1.18508 12.9442C0.271639 10.7389 0.271639 8.2611 1.18508 6.05585Z" stroke="#5A5A5A" stroke-linecap="round" stroke-linejoin="round"/>
</svg>
