<svg width="35" height="35" viewBox="0 0 35 35" fill="none" xmlns="http://www.w3.org/2000/svg">
<path d="M23.4922 19.9876C23.2966 19.8964 23.1029 19.8018 22.9112 19.7039C22.1206 19.3003 21.1249 19.5929 20.7576 20.401C20.252 21.5133 18.791 21.7783 17.927 20.9143L14.0736 17.0609C13.2096 16.1969 13.4746 14.7359 14.5869 14.2303C15.3528 13.8822 15.6226 12.9328 15.2226 12.1927C15.0537 11.88 14.8936 11.5617 14.7427 11.2381C14.4415 10.5923 14.1801 9.93209 13.9588 9.26121C13.5938 8.15509 12.338 7.53826 11.3002 8.06705L8.56515 9.46063C8.11489 9.69005 7.8355 10.1613 7.87955 10.6647C8.2502 14.9013 10.1017 18.8718 13.1089 21.879C16.1161 24.8862 20.0866 26.7377 24.3232 27.1083C24.827 27.1524 25.2985 26.8728 25.5281 26.4223L26.9973 23.5388C27.5327 22.4879 26.8935 21.2172 25.7672 20.8671C24.9937 20.6266 24.2335 20.3333 23.4922 19.9876Z" fill="#FEC400" stroke="white" stroke-linecap="round" stroke-linejoin="round"/>
</svg>
