<svg width="45" height="43" viewBox="0 0 45 43" fill="none" xmlns="http://www.w3.org/2000/svg">
<path d="M31.2577 16.5531L31.251 16.5591C30.9894 16.7918 30.6507 16.9204 30.3014 16.9253C29.9537 16.9303 29.6132 16.8126 29.3454 16.59C27.7477 15.3013 25.7217 14.5908 23.6244 14.5884C22.7551 14.5884 21.9335 14.7274 21.3488 15.0213C20.7851 15.3046 20.4875 15.6991 20.4875 16.2572C20.4875 16.8025 20.7916 17.2063 21.4908 17.6037C22.0867 17.9424 22.8664 18.2174 23.7745 18.5377C23.9604 18.6032 24.1516 18.6707 24.3478 18.741C26.3192 19.3696 28.1895 20.0983 29.5702 21.1674C30.9788 22.2582 31.8875 23.7129 31.8875 25.7391C31.8875 27.8955 31.0055 29.7302 29.4101 31.0551C27.8985 32.3103 25.7737 33.0874 23.2054 33.2925L22.801 35.0765C22.8009 35.0773 22.8007 35.078 22.8005 35.0788C22.7314 35.3932 22.5524 35.6706 22.2992 35.8673L21.9924 35.4724L22.2991 35.8673C22.0458 36.0641 21.7325 36.1692 21.4122 36.169M31.2577 16.5531L17.5835 32.8034C17.4225 32.7649 17.2624 32.7233 17.1035 32.6789M31.2577 16.5531L31.2643 16.5469L33.0037 14.8841C33.5842 14.3528 33.5546 13.4881 33.0172 12.9473L33.0173 12.9471L33.008 12.9383L32.9705 12.9024L32.9559 12.8885L32.9402 12.8757C31.637 11.8176 30.1399 10.9966 28.5542 10.4392L28.9694 8.42505C29.1511 7.64999 28.6108 6.96472 27.8952 6.80686L27.8654 6.80029L27.8351 6.79739L27.6476 6.77947L27.6238 6.7772H27.6H24.2672C23.9492 6.77182 23.6365 6.87178 23.3824 7.06409L23.6842 7.46279L23.3824 7.06409C23.1263 7.25791 22.9445 7.53473 22.8744 7.84969L22.8734 7.85433L22.4841 9.6854C20.3342 9.83395 18.3228 10.4263 16.8098 11.5315C15.1874 12.7165 14.1625 14.4765 14.1625 16.8128C14.1625 18.844 15.0263 20.3087 16.3187 21.3964C17.588 22.4646 19.2693 23.1695 20.9287 23.7375C21.241 23.849 21.5355 23.9525 21.813 24.0501C22.9475 24.4489 23.7956 24.747 24.4029 25.078C24.771 25.2786 25.0047 25.4687 25.1476 25.6622C25.282 25.8442 25.3563 26.0561 25.3563 26.3485C25.3563 26.9245 25.066 27.4132 24.4726 27.7808C23.8641 28.1578 22.9476 28.3937 21.7875 28.3937V28.3936L21.7799 28.3938C19.542 28.4277 17.3775 27.6122 15.7664 26.1567L15.7648 26.1552C15.5008 25.9188 15.1567 25.7904 14.8031 25.7904C14.4495 25.7904 14.1055 25.9188 13.8414 26.1552L13.8414 26.1552L13.835 26.1611L11.96 27.8997L11.96 27.8997L11.9551 27.9043C11.8236 28.0296 11.718 28.1797 11.6455 28.3466C11.573 28.5136 11.5353 28.6935 11.5353 28.8758C11.5353 29.058 11.573 29.2379 11.6455 29.4049C11.6867 29.4999 11.7387 29.5893 11.8 29.6719M31.2577 16.5531L11.8 29.6719M21.4122 36.169L21.4125 35.669V36.169H21.4122ZM21.4122 36.169H18.0562H18.0298L18.0034 36.1662L17.8347 36.1483L17.8084 36.1455L17.7826 36.14C17.4201 36.0622 17.0979 35.8499 16.8899 35.5413C16.6813 35.2317 16.6067 34.8525 16.6865 34.487L16.6878 34.4812L16.6878 34.4812L17.1035 32.6789M17.1035 32.6789C15.1891 32.1434 13.4287 31.1846 11.9665 29.8757L11.8 29.7266V29.6719M17.1035 32.6789L11.8 29.6719M41.6607 3.24127C42.5932 4.1327 43.3091 5.20661 43.76 6.38704C44.4949 8.62123 44.5 10.6839 44.5 15.0204V28.0154C44.5 32.3342 44.4949 34.3969 43.7598 36.6313C43.3093 37.8167 42.5916 38.8951 41.6557 39.7898C40.7197 40.6846 39.5884 41.3736 38.3408 41.8069C36.0101 42.4957 33.8401 42.5 29.3062 42.5H15.6563C11.1408 42.5 8.97172 42.4957 6.6231 41.7894C5.38034 41.3558 4.2534 40.6684 3.32054 39.7767C2.38848 38.8857 1.67282 37.8123 1.22195 36.6326C0.504861 34.3972 0.5 32.3501 0.5 28.0154V14.9846C0.5 10.6657 0.505092 8.60297 1.24025 6.36851C1.68889 5.18474 2.40389 4.10732 3.33665 3.21272C4.2693 2.31823 5.39691 1.62838 6.64097 1.19298C8.97151 0.504255 11.1601 0.5 15.675 0.5H29.2875C33.8411 0.5 35.9905 0.504436 38.3571 1.22814C39.6003 1.66169 40.7276 2.34924 41.6607 3.24127Z" fill="black" stroke="#E8E8E8"/>
</svg>
